<svg width="220" height="55" viewBox="0 0 220 55" fill="none" xmlns="http://www.w3.org/2000/svg">
<g clip-path="url(#clip0_1218_2790)">
<path d="M0.000170114 31.9998C-0.0998299 26.2998 4.40017 21.6998 10.0002 21.5998C10.1002 21.5998 10.2002 21.5998 10.3002 21.5998C13.1002 21.4998 15.9002 22.3998 18.0002 24.2998L15.7002 26.9998C14.2002 25.5998 12.2002 24.7998 10.1002 24.8998C6.40017 24.8998 3.60017 28.0998 3.60017 31.8998C3.60017 35.9998 6.30017 38.9998 10.4002 38.9998C12.1002 38.9998 13.8002 38.4998 15.2002 37.4998V33.7998H10.1002V30.7998H18.6002V39.1998C16.3002 41.1998 13.3002 42.2998 10.3002 42.2998C4.80017 42.4998 0.20017 38.2998 0.000170114 32.8998C0.000170114 32.5998 0.000170114 32.2998 0.000170114 31.9998Z" fill="white"/>
<path d="M55.9002 33.9998L52.4002 25.9998L49.0002 33.9998H55.9002ZM50.9002 21.7998H54.1002L62.9002 41.7998H59.2002L57.2002 36.9998H47.8002L45.8002 41.7998H42.2002L50.9002 21.7998Z" fill="white"/>
<path d="M66.2998 21.8999H69.5998L80.1998 35.6999V21.8999H83.6998V41.8999H80.7998L69.7998 27.6999V41.8999H66.2998V21.8999Z" fill="white"/>
<path d="M88.7998 21.8999H103.7V25.0999H92.2998V30.5999H102.4V33.7999H92.2998V41.8999H88.7998V21.8999Z" fill="white"/>
<path d="M123.6 32.0002C123.7 28.2002 120.8 25.0002 117 24.9002C116.9 24.9002 116.9 24.9002 116.8 24.9002C113.1 24.9002 110.1 27.9002 110.1 31.6002C110.1 31.7002 110.1 31.8002 110.1 31.9002C110 35.7002 112.9 38.8002 116.7 39.0002C116.8 39.0002 116.9 39.0002 116.9 39.0002C120.6 39.0002 123.6 36.0002 123.6 32.3002C123.6 32.2002 123.6 32.1002 123.6 32.0002ZM106.5 32.0002C106.7 26.2002 111.5 21.6002 117.2 21.8002C122.7 22.0002 127.1 26.4002 127.3 31.9002C127.1 37.7002 122.3 42.2002 116.6 42.0002C111.1 41.9002 106.6 37.5002 106.5 32.0002Z" fill="white"/>
<path d="M159.6 38.6999C163.8 38.6999 166.5 35.8999 166.5 31.9999V31.8999C166.6 28.2999 163.8 25.1999 160.2 25.0999C160 25.0999 159.8 25.0999 159.6 25.0999H155.7V38.6999H159.6ZM152.1 21.8999H159.5C165.8 21.8999 170.1 26.1999 170.1 31.7999C170.1 37.3999 165.8 41.7999 159.5 41.7999H152.1V21.8999Z" fill="white"/>
<path d="M34.8002 34.3C37.6002 33.7 39.6002 31.2 39.6002 28.3V28.2C39.6002 26.6 39.1002 25.1 37.9002 23.9C36.3002 22.5 34.2002 21.8 32.1002 21.9H23.2002V41.8H26.7002V25.1H31.8002C34.4002 25.1 35.9002 26.3 35.9002 28.4C35.9002 30.4 34.3002 31.7 31.8002 31.7H28.9002L36.0002 41.9H40.1002L34.8002 34.3Z" fill="white"/>
<path d="M143.1 34.3C145.9 33.7 147.9 31.2 147.9 28.3V28.2C147.9 26.6 147.3 25.1 146.2 23.9C144.6 22.5 142.6 21.8 140.4 21.9H131.5V41.8H135V25.1H140.1C142.7 25.1 144.2 26.3 144.2 28.4C144.2 30.4 142.6 31.7 140.1 31.7H137.2L144.3 41.7H148.4L143.1 34.3Z" fill="white"/>
<path d="M188.9 30.6001C183.1 22.1001 179 12.6001 176.8 2.6001C176.8 3.1001 176.8 3.6001 176.8 4.1001C176.8 14.4001 179.2 24.6001 183.9 33.7001C180.2 36.5001 176.9 39.9001 174.3 43.8001C178 41.4001 182 39.3001 186 37.5001C188.1 36.6001 190.2 35.8001 192.3 35.1001C191.1 33.7001 189.9 32.2001 188.9 30.6001Z" fill="white"/>
<path d="M204.3 26.9001C192.7 21.0001 183.2 11.6001 177 0.100098C180.3 10.7001 185.9 20.4001 193.4 28.7001C194.9 30.3001 196.4 31.9001 198.1 33.4001C203.5 32.0001 209 31.2001 214.5 31.0001C215.7 31.0001 217 30.9001 218.2 30.9001C218.8 30.9001 219.4 30.9001 220.1 30.9001C215.2 28.3001 209.8 27.0001 204.3 26.9001Z" fill="white"/>
<path d="M6.26336 50.7458C6.23353 50.4939 6.11256 50.2983 5.90044 50.1591C5.68831 50.0199 5.42813 49.9503 5.1199 49.9503C4.89452 49.9503 4.69731 49.9868 4.52828 50.0597C4.3609 50.1326 4.22998 50.2329 4.13552 50.3605C4.04272 50.4881 3.99632 50.6331 3.99632 50.7955C3.99632 50.9314 4.02863 51.0482 4.09326 51.146C4.15955 51.2421 4.24407 51.3225 4.34681 51.3871C4.44956 51.4501 4.55728 51.5023 4.66997 51.5437C4.78266 51.5835 4.88623 51.6158 4.98069 51.6407L5.49774 51.7799C5.63031 51.8147 5.7778 51.8627 5.94021 51.9241C6.10427 51.9854 6.26088 52.0691 6.41002 52.1751C6.56083 52.2795 6.68512 52.4138 6.78289 52.5778C6.88067 52.7419 6.92955 52.9432 6.92955 53.1819C6.92955 53.457 6.85747 53.7055 6.71329 53.9276C6.57077 54.1497 6.36196 54.3262 6.08687 54.4571C5.81343 54.588 5.48116 54.6535 5.09007 54.6535C4.72548 54.6535 4.40979 54.5946 4.14298 54.477C3.87783 54.3593 3.66902 54.1952 3.51656 53.9848C3.36575 53.7743 3.28041 53.5299 3.26052 53.2515H3.89688C3.91346 53.4437 3.97809 53.6028 4.09078 53.7287C4.20512 53.853 4.3493 53.9458 4.5233 54.0071C4.69897 54.0668 4.88789 54.0966 5.09007 54.0966C5.32539 54.0966 5.53668 54.0585 5.72394 53.9823C5.91121 53.9044 6.05953 53.7967 6.1689 53.6591C6.27828 53.5199 6.33296 53.3575 6.33296 53.1719C6.33296 53.0029 6.28573 52.8653 6.19127 52.7593C6.09681 52.6532 5.97252 52.567 5.8184 52.5008C5.66428 52.4345 5.49774 52.3765 5.31876 52.3267L4.69234 52.1478C4.29461 52.0334 3.97974 51.8702 3.74774 51.6581C3.51573 51.4459 3.39972 51.1684 3.39972 50.8253C3.39972 50.5403 3.47678 50.2917 3.6309 50.0796C3.78668 49.8658 3.99549 49.7001 4.25732 49.5824C4.52082 49.4631 4.81497 49.4035 5.13978 49.4035C5.46791 49.4035 5.75957 49.4623 6.01478 49.5799C6.26999 49.6959 6.47217 49.855 6.62132 50.0572C6.77212 50.2594 6.85167 50.4889 6.85995 50.7458H6.26336ZM8.55961 49.4731V54.564H7.94314V49.4731H8.55961Z" fill="white"/>
<path d="M14.2164 49.4731V54.564H13.6198L10.8457 50.5668H10.7959V54.564H10.1795V49.4731H10.7761L13.5601 53.4802H13.6099V49.4731H14.2164ZM19.5466 51.064H18.9301C18.8936 50.8866 18.8298 50.7309 18.7387 50.5966C18.6492 50.4624 18.5398 50.3497 18.4106 50.2586C18.283 50.1658 18.1413 50.0962 17.9855 50.0498C17.8297 50.0034 17.6673 49.9802 17.4983 49.9802C17.19 49.9802 16.9108 50.058 16.6606 50.2138C16.412 50.3696 16.2139 50.5991 16.0665 50.9024C15.9206 51.2057 15.8477 51.5777 15.8477 52.0185C15.8477 52.4593 15.9206 52.8314 16.0665 53.1346C16.2139 53.4379 16.412 53.6674 16.6606 53.8232C16.9108 53.979 17.19 54.0569 17.4983 54.0569C17.6673 54.0569 17.8297 54.0337 17.9855 53.9873C18.1413 53.9409 18.283 53.8721 18.4106 53.7809C18.5398 53.6881 18.6492 53.5746 18.7387 53.4404C18.8298 53.3045 18.8936 53.1487 18.9301 52.9731H19.5466C19.5002 53.2332 19.4156 53.4661 19.293 53.6716C19.1704 53.8771 19.0179 54.0519 18.8356 54.1961C18.6533 54.3386 18.4487 54.4471 18.2216 54.5217C17.9963 54.5963 17.7551 54.6336 17.4983 54.6336C17.0641 54.6336 16.678 54.5275 16.3399 54.3154C16.0018 54.1033 15.7358 53.8017 15.5419 53.4106C15.3481 53.0195 15.2511 52.5554 15.2511 52.0185C15.2511 51.4816 15.3481 51.0176 15.5419 50.6265C15.7358 50.2354 16.0018 49.9338 16.3399 49.7216C16.678 49.5095 17.0641 49.4035 17.4983 49.4035C17.7551 49.4035 17.9963 49.4407 18.2216 49.5153C18.4487 49.5899 18.6533 49.6993 18.8356 49.8434C19.0179 49.986 19.1704 50.16 19.293 50.3655C19.4156 50.5693 19.5002 50.8021 19.5466 51.064Z" fill="white"/>
<path d="M20.1795 54.564V49.4731H23.2519V50.0199H20.7959V51.7401H23.0928V52.287H20.7959V54.0171H23.2917V54.564H20.1795ZM26.2423 54.564V54.1165L27.9227 52.277C28.1199 52.0616 28.2823 51.8743 28.4099 51.7152C28.5375 51.5545 28.632 51.4037 28.6933 51.2628C28.7563 51.1203 28.7878 50.9712 28.7878 50.8154C28.7878 50.6364 28.7447 50.4815 28.6585 50.3505C28.574 50.2196 28.458 50.1185 28.3105 50.0473C28.163 49.976 27.9973 49.9404 27.8133 49.9404C27.6178 49.9404 27.4471 49.981 27.3013 50.0622C27.1571 50.1417 27.0452 50.2536 26.9657 50.3978C26.8878 50.5419 26.8489 50.711 26.8489 50.9049H26.2622C26.2622 50.6066 26.331 50.3447 26.4685 50.1194C26.6061 49.894 26.7933 49.7183 27.0303 49.5924C27.269 49.4664 27.5366 49.4035 27.8332 49.4035C28.1315 49.4035 28.3958 49.4664 28.6262 49.5924C28.8565 49.7183 29.0372 49.8882 29.1681 50.102C29.299 50.3157 29.3645 50.5535 29.3645 50.8154C29.3645 51.0026 29.3305 51.1858 29.2626 51.3647C29.1963 51.5421 29.0803 51.7401 28.9146 51.9589C28.7505 52.1759 28.5226 52.4411 28.231 52.7543L27.0875 53.9773V54.0171H29.454V54.564H26.2423ZM32.1411 54.6336C31.7666 54.6336 31.4476 54.5316 31.1841 54.3278C30.9206 54.1223 30.7192 53.8249 30.58 53.4354C30.4408 53.0443 30.3712 52.572 30.3712 52.0185C30.3712 51.4683 30.4408 50.9985 30.58 50.6091C30.7209 50.218 30.9231 49.9197 31.1866 49.7142C31.4517 49.507 31.7699 49.4035 32.1411 49.4035C32.5123 49.4035 32.8297 49.507 33.0932 49.7142C33.3583 49.9197 33.5605 50.218 33.6997 50.6091C33.8406 50.9985 33.911 51.4683 33.911 52.0185C33.911 52.572 33.8414 53.0443 33.7022 53.4354C33.563 53.8249 33.3616 54.1223 33.0981 54.3278C32.8347 54.5316 32.5156 54.6336 32.1411 54.6336ZM32.1411 54.0867C32.5123 54.0867 32.8007 53.9077 33.0062 53.5498C33.2117 53.1918 33.3144 52.6814 33.3144 52.0185C33.3144 51.5777 33.2672 51.2023 33.1727 50.8924C33.0799 50.5825 32.9457 50.3464 32.77 50.184C32.596 50.0216 32.3864 49.9404 32.1411 49.9404C31.7732 49.9404 31.4857 50.1218 31.2785 50.4848C31.0714 50.846 30.9678 51.3573 30.9678 52.0185C30.9678 52.4593 31.0142 52.8339 31.107 53.1421C31.1998 53.4503 31.3332 53.6848 31.5072 53.8456C31.6829 54.0063 31.8942 54.0867 32.1411 54.0867ZM36.6454 49.4731V54.564H36.0289V50.1194H35.9991L34.7562 50.9446V50.3182L36.0289 49.4731H36.6454ZM39.7998 54.6336C39.591 54.6303 39.3822 54.5905 39.1734 54.5142C38.9646 54.438 38.774 54.3096 38.6017 54.129C38.4293 53.9467 38.291 53.7006 38.1866 53.3907C38.0822 53.0791 38.03 52.688 38.03 52.2174C38.03 51.7666 38.0722 51.3672 38.1567 51.0192C38.2413 50.6696 38.3639 50.3754 38.5246 50.1368C38.6854 49.8965 38.8793 49.7142 39.1063 49.5899C39.335 49.4656 39.5927 49.4035 39.8794 49.4035C40.1644 49.4035 40.418 49.4606 40.64 49.575C40.8638 49.6877 41.0461 49.8451 41.1869 50.0473C41.3278 50.2495 41.4189 50.4823 41.4604 50.7458H40.8538C40.7975 50.5171 40.6881 50.3273 40.5257 50.1765C40.3633 50.0257 40.1479 49.9503 39.8794 49.9503C39.485 49.9503 39.1743 50.1218 38.9472 50.4649C38.7218 50.8079 38.6083 51.2893 38.6067 51.9091H38.6464C38.7392 51.7683 38.8494 51.6481 38.9771 51.5487C39.1063 51.4476 39.2488 51.3697 39.4046 51.315C39.5604 51.2603 39.7253 51.233 39.8993 51.233C40.1909 51.233 40.4578 51.3059 40.6997 51.4517C40.9417 51.5959 41.1355 51.7956 41.2814 52.0508C41.4272 52.3044 41.5001 52.5952 41.5001 52.9233C41.5001 53.2382 41.4297 53.5266 41.2888 53.7884C41.148 54.0486 40.9499 54.2557 40.6947 54.4098C40.4412 54.5623 40.1429 54.6369 39.7998 54.6336ZM39.7998 54.0867C40.0087 54.0867 40.1959 54.0345 40.3616 53.9301C40.529 53.8257 40.6608 53.6857 40.7569 53.51C40.8547 53.3343 40.9035 53.1388 40.9035 52.9233C40.9035 52.7129 40.8563 52.5215 40.7619 52.3491C40.669 52.1751 40.5406 52.0367 40.3766 51.934C40.2141 51.8312 40.0285 51.7799 39.8197 51.7799C39.6623 51.7799 39.5156 51.8114 39.3797 51.8743C39.2439 51.9357 39.1245 52.0202 39.0218 52.1279C38.9207 52.2356 38.8412 52.3591 38.7832 52.4983C38.7252 52.6358 38.6962 52.7808 38.6962 52.9333C38.6962 53.1355 38.7434 53.3244 38.8378 53.5C38.934 53.6757 39.0649 53.8174 39.2306 53.9251C39.398 54.0328 39.5877 54.0867 39.7998 54.0867Z" fill="white"/>
</g>
<defs>
<clipPath id="clip0_1218_2790">
<rect width="220" height="54.6" fill="white"/>
</clipPath>
</defs>
</svg>
