<svg width="197" height="40" viewBox="0 0 197 40" fill="none" xmlns="http://www.w3.org/2000/svg">
<g clip-path="url(#clip0_2_513)">
<path d="M-0.00127541 28.8639V28.8107C-0.022933 27.6058 0.199972 26.4087 0.654234 25.2906C1.10849 24.1725 1.78487 23.1559 2.64328 22.3013C3.5017 21.4466 4.52468 20.7712 5.65163 20.3151C6.77858 19.8589 7.98656 19.6313 9.204 19.6457C11.7378 19.5151 14.2215 20.3782 16.1169 22.0478L14.0842 24.4321C12.7353 23.1686 10.9351 22.4864 9.07863 22.5353C5.79232 22.5353 3.294 25.3894 3.294 28.7398V28.7842C3.294 32.4094 5.71172 35.0685 9.36518 35.0685C10.9079 35.0854 12.4161 34.6167 13.6723 33.7301V30.4505H9.1055V27.7914H16.7079V35.2103C14.639 36.9841 11.9948 37.9624 9.25772 37.9669C8.03242 38.0217 6.80894 37.8243 5.66468 37.3871C4.52041 36.9498 3.48026 36.2823 2.61001 35.4267C1.73976 34.5712 1.05835 33.5461 0.608871 32.4165C0.159393 31.2868 -0.0483692 30.0771 -0.00127541 28.8639Z" fill="#414241"/>
<path d="M50.0475 30.6366L46.9582 23.5457L43.8779 30.6366H50.0475ZM45.5703 19.8584H48.4715L56.3247 37.6211H53.0025L51.2116 33.3577H42.7496L40.9139 37.6211H37.6992L45.5703 19.8584Z" fill="#414241"/>
<path d="M59.3789 19.9468H62.2891L71.8526 32.1697V19.9468H74.9419V37.6209H72.3182L62.4682 25.0522V37.6209H59.3789V19.9468Z" fill="#414241"/>
<path d="M79.5352 19.9468H92.8237V22.7743H82.6692V27.5961H91.6775V30.4325H82.6692V37.6209H79.5352V19.9468Z" fill="#414241"/>
<path d="M110.704 28.8639V28.8107C110.735 28.0002 110.602 27.1918 110.311 26.4334C110.021 25.6751 109.579 24.9823 109.013 24.3961C108.447 23.8099 107.767 23.3423 107.015 23.0212C106.262 22.7 105.452 22.5317 104.633 22.5264C103.821 22.5269 103.018 22.6896 102.271 23.0047C101.524 23.3198 100.849 23.7807 100.287 24.36C99.7241 24.9393 99.2854 25.6249 98.9967 26.3759C98.708 27.127 98.5753 27.9279 98.6066 28.7309V28.7752C98.5742 29.5864 98.7069 30.3958 98.9969 31.1552C99.2869 31.9146 99.7282 32.6085 100.295 33.1956C100.861 33.7827 101.541 34.2511 102.294 34.5728C103.047 34.8946 103.858 35.0631 104.678 35.0684C105.49 35.0678 106.293 34.9051 107.04 34.59C107.787 34.275 108.461 33.814 109.024 33.2348C109.587 32.6555 110.026 31.9698 110.314 31.2188C110.603 30.4678 110.736 29.6668 110.704 28.8639ZM95.3203 28.8639V28.8107C95.3894 26.4092 96.4002 24.1287 98.1387 22.4522C99.8771 20.7757 102.207 19.8349 104.634 19.8291C107.061 19.8234 109.395 20.7531 111.141 22.4213C112.888 24.0895 113.91 26.3652 113.991 28.7664V28.8107C113.923 31.2123 112.913 33.4934 111.175 35.1708C109.438 36.8482 107.109 37.7901 104.681 37.797C102.254 37.8039 99.9198 36.8753 98.1724 35.2078C96.4251 33.5403 95.4021 31.265 95.3203 28.8639Z" fill="#414241"/>
<path d="M142.888 34.7934C146.64 34.7934 149.093 32.2938 149.093 28.837V28.7838C149.123 27.9752 148.982 27.1694 148.679 26.4179C148.376 25.6664 147.918 24.9859 147.334 24.42C146.749 23.8542 146.052 23.4155 145.286 23.1321C144.521 22.8487 143.704 22.7268 142.888 22.7743H139.368V34.7934H142.888ZM136.234 19.9468H142.888C148.502 19.9468 152.379 23.7581 152.379 28.7395V28.7838C152.379 33.7652 148.502 37.6475 142.888 37.6475H136.234V19.9468Z" fill="#414241"/>
<path d="M31.1176 30.9376C32.3428 30.6817 33.4392 30.0103 34.2175 29.0392C34.9957 28.0682 35.4069 26.8586 35.3799 25.6194V25.5662C35.3994 24.8659 35.2789 24.1687 35.0253 23.5146C34.7718 22.8606 34.3902 22.2625 33.9024 21.7549C32.487 20.5132 30.6329 19.8759 28.7446 19.9821H20.793V37.6208H23.9271V22.7742H28.4939C30.8131 22.7742 32.1921 23.8112 32.1921 25.708C32.1921 27.4808 30.7594 28.6685 28.5207 28.6685H25.8971L32.2369 37.6208H35.9351L31.1176 30.9376Z" fill="#414241"/>
<path d="M128.15 30.9376C129.375 30.6817 130.472 30.0103 131.25 29.0393C132.028 28.0682 132.439 26.8586 132.412 25.6194V25.5662C132.431 24.8653 132.309 24.1677 132.054 23.5136C131.798 22.8595 131.415 22.2618 130.926 21.7549C129.513 20.5154 127.662 19.8783 125.777 19.9822H117.816V37.6208H120.959V22.7742H125.517C127.845 22.7742 129.224 23.8112 129.224 25.7081C129.224 27.4808 127.792 28.6685 125.544 28.6685H122.92L129.269 37.5765H132.968L128.15 30.9376Z" fill="#414241"/>
<path d="M169.107 27.6141C163.903 20.111 160.212 11.684 158.236 2.7959C158.236 3.24794 158.236 3.68226 158.236 4.16976C158.221 13.3028 160.394 22.3093 164.576 30.4504C161.222 32.9571 158.307 35.9902 155.943 39.4293C159.288 37.2818 162.804 35.4083 166.456 33.8275C168.31 33.0386 170.19 32.3029 172.115 31.6648C171.077 30.3529 170.074 29.0057 169.124 27.6318" fill="#414241"/>
<path d="M182.96 24.3345C172.547 19.0781 164.009 10.7914 158.496 0.588867C161.475 9.98055 166.473 18.6226 173.146 25.9211C174.471 27.3748 175.832 28.7752 177.319 30.1136C182.13 28.9083 187.054 28.1925 192.013 27.9775C193.114 27.9775 194.225 27.8977 195.335 27.8977C195.89 27.8977 196.445 27.8977 197.001 27.8977C192.672 25.6276 187.858 24.4121 182.96 24.3523" fill="#414241"/>
</g>
<defs>
<clipPath id="clip0_2_513">
<rect width="197" height="39" fill="white" transform="translate(0 0.5)"/>
</clipPath>
</defs>
</svg>
