<svg width="16" height="16" viewBox="0 0 16 16" fill="none" xmlns="http://www.w3.org/2000/svg">
<path d="M4.66667 14C3.19391 14 2 12.8061 2 11.3334V3.33338C2 2.597 2.59695 2.00005 3.33333 2.00005H6C6.73638 2.00005 7.33333 2.597 7.33333 3.33338V11.3334C7.33333 12.8061 6.13943 14 4.66667 14ZM4.66667 14H12.6667C13.403 14 14 13.4031 14 12.6667V10C14 9.26367 13.403 8.66671 12.6667 8.66671H11.1046M7.33335 4.89546L8.4379 3.79091C8.9586 3.27021 9.80282 3.27021 10.3235 3.79091L12.2091 5.67652C12.7298 6.19722 12.7298 7.04144 12.2091 7.56214L6.55229 13.219M4.66667 11.3334H4.67333" stroke="#414241" stroke-width="1.3" stroke-linecap="round" stroke-linejoin="round"/>
</svg>
