<svg width="16" height="16" viewBox="0 0 16 16" fill="none" xmlns="http://www.w3.org/2000/svg">
<path d="M13.5118 2.4882L13.9714 2.02858L13.9714 2.02858L13.5118 2.4882ZM4.33333 14.0237V14.6737C4.50572 14.6737 4.67105 14.6052 4.79295 14.4833L4.33333 14.0237ZM2 14.0237H1.35C1.35 14.3827 1.64101 14.6737 2 14.6737V14.0237ZM2 11.643L1.54038 11.1834C1.41848 11.3053 1.35 11.4706 1.35 11.643H2ZM11.6144 2.94782C12.0114 2.55079 12.6552 2.55079 13.0522 2.94782L13.9714 2.02858C13.0667 1.12387 11.5999 1.12387 10.6952 2.02858L11.6144 2.94782ZM13.0522 2.94782C13.4492 3.34485 13.4492 3.98857 13.0522 4.3856L13.9714 5.30484C14.8761 4.40013 14.8761 2.9333 13.9714 2.02858L13.0522 2.94782ZM13.0522 4.3856L3.87371 13.5641L4.79295 14.4833L13.9714 5.30484L13.0522 4.3856ZM4.33333 13.3737H2V14.6737H4.33333V13.3737ZM10.6952 2.02858L1.54038 11.1834L2.45962 12.1026L11.6144 2.94782L10.6952 2.02858ZM1.35 11.643V14.0237H2.65V11.643H1.35ZM9.69517 3.94782L12.0522 6.30484L12.9714 5.3856L10.6144 3.02858L9.69517 3.94782Z" fill="#414241"/>
</svg>
